<?xml version="1.0" encoding="UTF-8" standalone="no"?>
<!-- Created with Inkscape (http://www.inkscape.org/) -->

<svg
   width="64.471207mm"
   height="130.35562mm"
   viewBox="0 0 64.471207 130.35562"
   version="1.1"
   id="svg1"
   xml:space="preserve"
   inkscape:version="1.4 (e7c3feb1, 2024-10-09)"
   sodipodi:docname="dibujo.svg"
   xmlns:inkscape="http://www.inkscape.org/namespaces/inkscape"
   xmlns:sodipodi="http://sodipodi.sourceforge.net/DTD/sodipodi-0.dtd"
   xmlns="http://www.w3.org/2000/svg"
   xmlns:svg="http://www.w3.org/2000/svg"><sodipodi:namedview
     id="namedview1"
     pagecolor="#ffffff"
     bordercolor="#000000"
     borderopacity="0.25"
     inkscape:showpageshadow="2"
     inkscape:pageopacity="0.0"
     inkscape:pagecheckerboard="0"
     inkscape:deskcolor="#d1d1d1"
     inkscape:document-units="mm"
     inkscape:zoom="0.78216891"
     inkscape:cx="163.64752"
     inkscape:cy="306.83909"
     inkscape:window-width="1200"
     inkscape:window-height="1027"
     inkscape:window-x="0"
     inkscape:window-y="25"
     inkscape:window-maximized="0"
     inkscape:current-layer="g1"><inkscape:page
       x="0"
       y="0"
       width="64.471207"
       height="130.35562"
       id="page1"
       margin="0"
       bleed="0" /><inkscape:page
       x="143.46529"
       y="-59.267426"
       width="1153.6785"
       height="207.94839"
       id="page2"
       margin="0"
       bleed="0" /></sodipodi:namedview><defs
     id="defs1" /><g
     inkscape:label="Capa 1"
     inkscape:groupmode="layer"
     id="layer1"
     transform="translate(-76.534716,-59.267428)" /><g
     id="g1"
     inkscape:groupmode="layer"
     inkscape:label="1"
     transform="matrix(0.26458333,0,0,0.26458334,143.46529,-59.267428)"><g
       id="g244"
       transform="translate(-960.15068,219.90135)"><path
         id="path2"
         d="m 420.69939,78.637521 56.91066,29.662669 62.14267,-64.894668 62.148,64.894668 56.90933,-29.662669 v 96.407999 l -5.23467,-2.31867 c -35.94,-15.92933 -74.23466,-24.00533 -113.81999,-24.00533 -39.58534,0.001 -77.88134,8.07733 -113.82267,24.00533 l -5.23333,2.31867 V 78.637521"
         style="fill:#231f20;fill-opacity:1;fill-rule:nonzero;stroke:none;stroke-width:0.133333" /><path
         id="path3"
         d="m 424.43272,169.26552 c 36.41867,-16.14133 75.2,-24.32267 115.32,-24.32267 40.11733,0 78.89866,8.18134 115.32,24.32134"
         style="fill:none;stroke:#ffffff;stroke-width:1.33333;stroke-linecap:butt;stroke-linejoin:miter;stroke-miterlimit:10;stroke-dasharray:none;stroke-opacity:1" /><path
         id="path4"
         d="M 424.43272,169.26552 V 84.834854 l 115.32,60.107996 115.32,-60.107996 0.003,84.430666 -115.323,-120.430665 z"
         style="fill:none;stroke:#ffffff;stroke-width:1.33333;stroke-linecap:butt;stroke-linejoin:miter;stroke-miterlimit:10;stroke-dasharray:none;stroke-opacity:1" /><path
         id="path5"
         d="M 539.75272,48.834855 V 144.94285"
         style="fill:none;stroke:#ffffff;stroke-width:1.33333;stroke-linecap:butt;stroke-linejoin:miter;stroke-miterlimit:10;stroke-dasharray:none;stroke-opacity:1" /><path
         id="path6"
         d="m 539.75272,144.94285 -115.32,-19.31066"
         style="fill:none;stroke:#ffffff;stroke-width:1.33333;stroke-linecap:butt;stroke-linejoin:miter;stroke-miterlimit:10;stroke-dasharray:none;stroke-opacity:1" /><path
         id="path7"
         d="M 539.75272,144.94285 655.07538,125.63219"
         style="fill:none;stroke:#ffffff;stroke-width:1.33333;stroke-linecap:butt;stroke-linejoin:miter;stroke-miterlimit:10;stroke-dasharray:none;stroke-opacity:1" /><path
         id="path8"
         d="M 539.75272,144.94285 507.52605,82.489521"
         style="fill:none;stroke:#ffffff;stroke-width:1.33333;stroke-linecap:butt;stroke-linejoin:miter;stroke-miterlimit:10;stroke-dasharray:none;stroke-opacity:1" /><path
         id="path9"
         d="M 539.75272,144.94285 571.98205,82.489521"
         style="fill:none;stroke:#ffffff;stroke-width:1.33333;stroke-linecap:butt;stroke-linejoin:miter;stroke-miterlimit:10;stroke-dasharray:none;stroke-opacity:1" /><path
         id="path10"
         d="m 537.77139,495.56284 c -35.55734,-21.908 -63.74134,-51.77866 -83.768,-88.77866 -15.97867,-29.52267 -26.81467,-63.612 -32.20267,-101.312 -9.15866,-64.05333 0.752,-117.24 0.85467,-117.76933 l 0.36933,-1.93067 1.792,-0.80666 c 36.22134,-16.32 74.89333,-24.59467 114.93733,-24.59467 40.04534,0 78.71733,8.27467 114.94133,24.596 l 1.792,0.80667 0.36667,1.93066 c 0.10133,0.52934 10.01333,53.716 0.85733,117.768 -5.39066,37.70267 -16.224,71.78933 -32.20666,101.312 -20.02534,37 -48.208,66.87066 -83.76667,88.77866 l -1.984,1.22134 -1.98266,-1.22134"
         style="fill:#231f20;fill-opacity:1;fill-rule:nonzero;stroke:none;stroke-width:0.133333" /><path
         id="path11"
         d="m 537.52605,463.56284 c -48.88266,-35.67999 -78.94533,-89.69466 -89.35199,-160.54666 -6.07467,-41.37866 -3.53067,-78.16933 -1.47067,-96.41733 l 0.25467,-2.28267 2.14533,-0.82266 c 28.84133,-11.05867 59.34133,-16.66667 90.64933,-16.66667 31.30933,0 61.80933,5.608 90.65066,16.668 l 2.144,0.82267 0.25734,2.28266 c 2.06,18.23734 4.60666,55.016 -1.47467,96.416 -10.40533,70.852 -40.46533,124.86533 -89.348,160.54666 l -2.22933,1.62534 -2.22667,-1.62534"
         style="fill:#ffffff;fill-opacity:1;fill-rule:nonzero;stroke:none;stroke-width:0.133333" /><path
         id="path12"
         d="m 499.37405,337.16151 h 24.352 c 20.98134,0 37.964,-6.992 50.95334,-20.98133 12.984,-13.98666 19.48133,-30.47066 19.48133,-49.45866 0,-13.98267 -3.36933,-26.34534 -10.116,-37.088 -6.74,-10.736 -15.49333,-18.97867 -26.22667,-24.72667 -10.73866,-5.744 -22.104,-8.61733 -34.092,-8.61733 h -24.352 z m 24.352,-161.47866 c 16.232,0 31.40667,4.06134 45.51867,12.17467 14.10667,8.12133 25.22667,19.23733 33.34666,33.34533 8.112,14.11467 12.17734,29.288 12.17734,45.51867 0,13.74 -3.128,26.97733 -9.37067,39.716 -6.244,12.73733 -14.86133,23.35733 -25.85066,31.84666 -10.996,8.49467 -22.98134,14.23467 -35.964,17.23467 l 63.68933,74.92933 h -27.35067 l -61.44,-72.68133 h -19.108 v 72.68133 h -20.608 V 196.28952 h -30.71999 l 12.36133,-20.60667 h 63.31866"
         style="fill:#231f20;fill-opacity:1;fill-rule:nonzero;stroke:none;stroke-width:0.133333" /><path
         id="path13"
         d="m 544.96605,330.57351 h -39.696 V 219.03885 h 9.02134 v 102.51333 h 30.67466 v 9.02133"
         style="fill:#231f20;fill-opacity:1;fill-rule:nonzero;stroke:none;stroke-width:0.133333" /><path
         id="path14"
         d="m 523.50339,169.71219 0.82533,12.67733 -1.64,0.10667 -0.68533,-10.53867 -1.21334,0.08 1.52667,-2.248 1.18667,-0.0773"
         style="fill:#ffffff;fill-opacity:1;fill-rule:nonzero;stroke:none;stroke-width:0.133333" /><path
         id="path15"
         d="m 536.36072,173.59352 c -0.016,-0.78267 -0.30533,-1.444 -0.868,-1.98533 -0.56133,-0.54 -1.236,-0.804 -2.01733,-0.78934 -0.77867,0.0147 -1.44,0.30134 -1.98267,0.86267 -0.544,0.56 -0.80933,1.232 -0.79333,2.016 0.0147,0.78267 0.30133,1.444 0.864,1.98533 0.56266,0.54 1.23466,0.80267 2.01333,0.788 0.784,-0.0133 1.44533,-0.3 1.98933,-0.86133 0.54134,-0.56 0.808,-1.232 0.79467,-2.016 z m -0.89067,3.54267 c -0.46133,0.51733 -1.23733,0.78533 -2.32533,0.804 -1.09733,0.02 -2.016,-0.32534 -2.75333,-1.03734 -0.89334,-0.868 -1.35067,-1.92666 -1.37467,-3.176 -0.024,-1.24266 0.39867,-2.31333 1.26,-3.21066 0.86267,-0.89734 1.92,-1.35734 3.16667,-1.38 1.24266,-0.0227 2.316,0.39733 3.216,1.26 0.86266,0.836 1.31066,2.012 1.34133,3.52533 l 0.003,0.024 c 0.024,1.49733 -0.35334,2.82267 -1.14534,3.976 -0.792,1.15733 -1.86933,2.52933 -3.22933,4.116 l -2.156,0.0387 c 1.88267,-2.024 3.216,-3.67067 3.99733,-4.94"
         style="fill:#ffffff;fill-opacity:1;fill-rule:nonzero;stroke:none;stroke-width:0.133333" /><path
         id="path16"
         d="m 546.85005,173.76152 c 0.0213,-0.784 -0.23733,-1.45733 -0.77866,-2.02267 -0.536,-0.564 -1.19734,-0.85733 -1.98134,-0.876 -0.77866,-0.02 -1.45066,0.23867 -2.01866,0.77334 -0.56534,0.53733 -0.85867,1.196 -0.88,1.97866 -0.0187,0.784 0.24,1.45734 0.776,2.02267 0.54133,0.564 1.2,0.856 1.976,0.87733 0.784,0.0187 1.45866,-0.23866 2.02666,-0.77466 0.568,-0.536 0.85867,-1.196 0.88,-1.97867 z m -1.04133,3.49867 c -0.484,0.496 -1.27067,0.73066 -2.36267,0.70266 -1.09333,-0.028 -1.99466,-0.41466 -2.70266,-1.15733 -0.85467,-0.90667 -1.268,-1.984 -1.23467,-3.23333 0.032,-1.24267 0.49733,-2.29467 1.39867,-3.15334 0.90133,-0.85866 1.976,-1.272 3.224,-1.23866 1.24533,0.032 2.29733,0.49866 3.15866,1.39866 0.82534,0.87467 1.22134,2.068 1.188,3.58 v 0.0253 c -0.04,1.49733 -0.48,2.80533 -1.31866,3.92133 -0.84534,1.12133 -1.97867,2.44533 -3.40534,3.97067 l -2.16133,-0.0547 c 1.97333,-1.94133 3.38,-3.528 4.216,-4.76133"
         style="fill:#ffffff;fill-opacity:1;fill-rule:nonzero;stroke:none;stroke-width:0.133333" /><path
         id="path17"
         d="m 551.37939,178.06419 c -0.0573,0.78133 0.17066,1.46666 0.68666,2.05466 0.51334,0.588 1.15867,0.90934 1.94267,0.964 0.776,0.0547 1.45867,-0.17333 2.04667,-0.68266 0.592,-0.51067 0.91466,-1.15734 0.96933,-1.93734 0.0547,-0.78266 -0.17467,-1.468 -0.688,-2.05466 -0.512,-0.588 -1.15867,-0.91067 -1.93467,-0.964 -0.78133,-0.056 -1.46533,0.172 -2.05733,0.68266 -0.59067,0.51067 -0.91067,1.15734 -0.96533,1.93734 z m 1.19466,-3.44934 c 0.50534,-0.47333 1.30267,-0.672 2.39067,-0.596 1.09333,0.0773 1.976,0.50267 2.648,1.27734 0.81333,0.94266 1.18,2.03733 1.092,3.284 -0.0867,1.24133 -0.6,2.26933 -1.54,3.088 -0.94,0.81733 -2.028,1.18266 -3.27333,1.09466 -1.24134,-0.0867 -2.276,-0.60133 -3.09334,-1.54 -0.78666,-0.908 -1.128,-2.11866 -1.028,-3.62933 l 10e-4,-0.0227 c 0.10533,-1.496 0.60266,-2.78133 1.49333,-3.86 0.89067,-1.08266 2.08267,-2.356 3.57467,-3.816 l 2.156,0.152 c -2.05467,1.85067 -3.53067,3.37334 -4.42134,4.568"
         style="fill:#ffffff;fill-opacity:1;fill-rule:nonzero;stroke:none;stroke-width:0.133333" /><path
         id="path18"
         d="m 539.75539,492.34684 c -34.988,-21.56 -62.72134,-50.95066 -82.428,-87.36133 -15.76667,-29.13333 -26.46,-62.792 -31.78533,-100.04799 -9.04534,-63.25334 0.72133,-115.97467 0.82533,-116.52534 l 10e-4,-0.001 c 35.73067,-16.09733 73.87867,-24.26 113.38533,-24.26 39.50667,0 77.65733,8.16267 113.38933,24.26133 0.12,0.64134 9.85867,53.32534 0.82534,116.52534 -5.328,37.26399 -16.024,70.92533 -31.78934,100.04799 -19.70533,36.41067 -47.43733,65.804 -82.42399,87.36133 z"
         style="fill:none;stroke:#ffffff;stroke-width:1.33333;stroke-linecap:butt;stroke-linejoin:miter;stroke-miterlimit:10;stroke-dasharray:none;stroke-opacity:1" /><path
         id="path19"
         d="m 538.47939,440.40685 v 3.20266 c 0,3.86267 -1.93067,6.068 -5.652,6.068 -3.72134,0 -5.65067,-2.20533 -5.65067,-6.068 v -12.544 c 0,-3.85866 1.92933,-6.06533 5.65067,-6.06533 3.72133,0 5.652,2.20667 5.652,6.06533 v 2.344 h -3.584 v -2.58533 c 0,-1.72133 -0.75734,-2.37867 -1.96267,-2.37867 -1.20933,0 -1.96667,0.65734 -1.96667,2.37867 v 13.028 c 0,1.724 0.75734,2.344 1.96667,2.344 1.20533,0 1.96267,-0.62 1.96267,-2.344 v -3.44533 h 3.584"
         style="fill:#231f20;fill-opacity:1;fill-rule:nonzero;stroke:none;stroke-width:0.133333" /><path
         id="path20"
         d="m 544.58072,438.54551 v 7.408 h 2.172 c 1.27333,0 1.96267,-0.58533 1.96267,-2.37733 v -2.10133 c 0,-2.24 -0.724,-2.92934 -2.44667,-2.92934 z m 0,-9.824 v 6.376 h 1.48133 c 1.41467,0 2.27334,-0.62 2.27334,-2.54933 v -1.344 c 0,-1.724 -0.58534,-2.48267 -1.92934,-2.48267 z m 7.54667,2.10267 v 0.86133 c 0,2.48134 -0.75734,4.03334 -2.44534,4.82534 v 0.0707 c 2.032,0.792 2.82534,2.58267 2.82534,5.13334 v 1.96533 c 0,3.72133 -1.96534,5.72133 -5.75467,5.72133 h -5.964 v -24.12533 h 5.72133 c 3.92934,0 5.61734,1.82667 5.61734,5.548"
         style="fill:#231f20;fill-opacity:1;fill-rule:nonzero;stroke:none;stroke-width:0.133333" /><path
         id="path242"
         d="m 545.31805,15.373523 12.44,1.808 -9,8.773333 2.124,12.389333 -11.12666,-5.849334 -11.128,5.849334 2.12533,-12.389333 -9,-8.773333 12.44,-1.808 5.56267,-11.2720002 5.56266,11.2720002"
         style="fill:#231f20;fill-opacity:1;fill-rule:nonzero;stroke:none;stroke-width:0.133333" /></g></g></svg>
